<svg xmlns="http://www.w3.org/2000/svg" version="1.1" x="0" y="0" viewBox="0 0 48 48" xml:space="preserve" class="injected-svg" data-src="https://images.ctfassets.net/8fjb1swihtib/7iywlFl8lbAiu85lt9wuQF/21ee4a27473c0791a625da1c32abbf99/social-linkedin.svg" xmlns:xlink="http://www.w3.org/1999/xlink" role="img"><title xmlns="http://www.w3.org/1999/xhtml">LinkedIn Social Icon</title><path class="st0" d="M9.7 7.2c2.2-.8 5 .5 5.4 2.9.7 2.3-1 5-3.4 5.2-2.4.5-4.7-1.3-4.8-3.7-.2-1.8.9-3.9 2.8-4.4zM25.7 21.2c1-1.6 2.5-2.9 4.4-3.4 2.8-.6 6.2-.3 8.4 1.8 1.9 1.9 2.5 4.7 2.5 7.3v14h-7.3V29c-.1-1.6-.2-3.5-1.5-4.6-1.6-1.2-4.2-.7-5.3 1-1.1 1.6-1.1 3.5-1.2 5.4v10.1h-6.8c-.1-7.6.2-15.2-.2-22.8h7c.1 1.1.1 2.1 0 3.1zM7.6 18.1h7V41h-7c0-7.6-.1-15.2 0-22.9z"/></svg>