<svg xmlns="http://www.w3.org/2000/svg" xml:space="preserve" viewBox="0 0 122 21" class="header__logo" aria-label="Toaster Logo"><path d="m43.9 1.2-7.7 18.2h4l1.7-4L45.7 6l2.4 5.8 1.4 3.5 1.7 4h4.2L47.6 1.2zM26.4 1c-5.6 0-9.6 4.2-9.6 9.3v.1c0 5.1 4 9.3 9.6 9.3s9.6-4.2 9.6-9.3v-.1C36 5.2 32 1 26.4 1m5.4 9.4c0 3.1-2.2 5.6-5.4 5.6s-5.5-2.6-5.5-5.7v-.1c0-3.1 2.2-5.6 5.4-5.6 3.3.1 5.5 2.6 5.5 5.8M1 5h5.5v14.4h4V5H16V1.3H1zm63.5 3.6c-3.1-.8-3.9-1.2-3.9-2.4v-.1c0-.9.8-1.6 2.3-1.6s3.1.7 4.7 1.8l2.1-3C67.9 1.9 65.6 1 63 1c-3.7 0-6.3 2.2-6.3 5.4v.1c0 3.6 2.3 4.6 6 5.5 3 .8 3.6 1.3 3.6 2.3v.1c0 1.1-1 1.7-2.6 1.7-2.1 0-3.8-.9-5.4-2.2L56 16.7c2.2 1.9 4.9 2.9 7.7 2.9 3.9 0 6.6-2 6.6-5.6-.1-3.2-2.1-4.5-5.8-5.4m37.9-7.3H88.7v3.5h13.6V1.3zm0 7.3H88.7v3.5h13.6V8.6zM71.4 5h5.5v14.4h4V5h5.5V1.3h-15zm31 10.8H88.7v3.5h13.6v-3.5zm14.2-2.9c2.3-.9 3.9-2.7 3.9-5.6 0-1.7-.5-3.1-1.5-4.1-1.2-1.2-3-1.8-5.3-1.8h-8.3v18.1h4v-5.8h3.1l3.9 5.8h4.6zm-.2-5.4c0 1.5-1.1 2.6-3 2.6h-4V4.9h3.9c1.9 0 3.1.9 3.1 2.6" class="logo-toaster_svg__st0"/></svg>