<svg xmlns="http://www.w3.org/2000/svg" version="1.1" x="0" y="0" viewBox="0 0 48 48" xml:space="preserve" class="injected-svg" data-src="https://images.ctfassets.net/8fjb1swihtib/2VpoJ9xb3SArOkgfzyaT6a/4cca992d06b821e32bb4196e8756006b/social-instagram.svg" xmlns:xlink="http://www.w3.org/1999/xlink" role="img"><title xmlns="http://www.w3.org/1999/xhtml">Instagram Social Icon</title><path class="st0" d="M40.8 16c-.1-4.7-4.2-8.8-8.9-9H18.4c-1.5 0-3-.1-4.5.3-3.2.8-5.8 3.4-6.7 6.6-.5 1.6-.4 3.3-.4 5v12.9c0 5 4.7 9.4 9.7 9.2h15.4c4.7-.2 8.8-4.5 8.9-9.2 0-5.3.1-10.5 0-15.8zm-3.1 15.6c0 3.3-3 6.3-6.4 6.3H16.2C13 37.9 10 35 10 31.7V16.4c0-2.7 2-5.3 4.6-6 1.1-.3 2.2-.3 3.3-.3h13.8c3.2.1 6 3 6.1 6.2-.1 5.1-.1 10.2-.1 15.3z"/><path class="st0" d="M32.6 12.7c1.5-.4 3.1 1.2 2.5 2.7-.4 1.5-2.6 1.9-3.6.7-1-1-.4-3.1 1.1-3.4zM32.3 21.3c-1.4-4.4-6.6-7.1-11-5.7-1.2.4-2.4 1-3.4 1.8-3.2 2.7-4 7.7-1.7 11.2 2.2 3.8 7.5 5.3 11.4 3.4 4-1.7 6.2-6.6 4.7-10.7zM28 28.1c-1.7 1.7-4.5 2.2-6.7 1.1-2.1-1-3.5-3.4-3.2-5.7.2-2.2 1.8-4.1 3.9-4.7 2.8-1 6.1.5 7.2 3.2.9 2 .4 4.5-1.2 6.1z"/></svg>